<?xml version="1.0" encoding="UTF-8"?>
<svg version="1.1" xmlns="http://www.w3.org/2000/svg" width="1536" height="1024">
<path d="M0 0 C506.88 0 1013.76 0 1536 0 C1536 337.92 1536 675.84 1536 1024 C1029.12 1024 522.24 1024 0 1024 C0 686.08 0 348.16 0 0 Z " fill="#FEFEFE" transform="translate(0,0)"/>
<path d="M0 0 C1.74304413 -0.01210762 1.74304413 -0.01210762 3.52130127 -0.02445984 C5.97886691 -0.03824963 8.4364513 -0.04899445 10.89404297 -0.05688477 C13.37033836 -0.06834163 15.84661031 -0.08869185 18.32275391 -0.1184082 C37.01538768 -0.34221967 55.04617601 0.50955949 72.640625 7.42578125 C73.41172607 7.72129883 74.18282715 8.01681641 74.97729492 8.32128906 C103.3092061 19.57145151 125.21253699 40.46356884 137.36328125 68.484375 C148.45379047 95.21159716 152.30489032 122.70734371 141.265625 149.86328125 C139.12792146 154.83310158 139.12792146 154.83310158 137.7421875 157.19921875 C136.53960137 160.07880571 136.63901525 162.1170841 136.890625 165.23828125 C137.94585169 167.79389997 139.03122318 170.11007042 140.33203125 172.53125 C140.69059708 173.22244431 141.0491629 173.91363861 141.41859436 174.6257782 C142.17987337 176.09102547 142.94632929 177.55359313 143.71759033 179.01361084 C144.86822743 181.19580406 146.00138914 183.38609963 147.12841797 185.58056641 C149.73635295 190.65774759 152.36165382 195.72586226 154.99145508 200.79174805 C156.11467321 202.95655164 157.23524224 205.1227097 158.35546875 207.2890625 C158.69706528 207.94522049 159.0386618 208.60137848 159.39060974 209.27742004 C162.17158215 214.66163807 163.68932844 219.12646366 162.890625 225.23828125 C160.94184839 229.54182961 159.56567954 230.92403172 155.265625 232.92578125 C153.81425026 233.38583966 152.35496223 233.82131743 150.890625 234.23828125 C149.53324219 234.6559375 149.53324219 234.6559375 148.1484375 235.08203125 C145.73443464 235.82059303 143.31583113 236.53755571 140.890625 237.23828125 C139.59042326 241.86882791 139.59042326 241.86882791 140.9375 246.30859375 C141.86137105 247.67363918 142.7897353 249.03565479 143.72265625 250.39453125 C144.890625 252.23828125 144.890625 252.23828125 145.515625 254.86328125 C144.27427214 259.58042211 140.35653488 262.95478768 136.890625 266.23828125 C138.1590625 267.32109375 138.1590625 267.32109375 139.453125 268.42578125 C141.890625 271.23828125 141.890625 271.23828125 142.078125 273.61328125 C140.62799878 276.81882341 138.66502767 279.04047841 136.265625 281.58984375 C133.19865727 285.26671984 133.62071334 289.70535301 133.890625 294.23828125 C134.05304688 295.10839844 134.21546875 295.97851562 134.3828125 296.875 C135.05731547 301.34228505 135.114085 305.72648105 135.140625 310.23828125 C135.1715625 311.553125 135.1715625 311.553125 135.203125 312.89453125 C135.24320259 319.54741038 134.08083135 323.75210107 129.578125 328.86328125 C122.33737186 335.26208635 115.74198948 337.5353807 106.12109375 337.4765625 C104.63996482 337.49198457 103.15884486 337.50828838 101.67773438 337.52539062 C99.38057374 337.54178319 97.08407917 337.55079965 94.78686523 337.54370117 C85.71102746 337.53297899 77.50687613 337.58485556 69.890625 343.23828125 C63.0212287 351.3098219 62.82571612 361.55265704 62.328125 371.67578125 C62.28494141 372.50271484 62.24175781 373.32964844 62.19726562 374.18164062 C62.09224467 376.20037674 61.99103941 378.21931076 61.890625 380.23828125 C61.07464844 379.78839844 60.25867188 379.33851563 59.41796875 378.875 C41.19122617 368.92954974 22.85710654 360.09351532 2.890625 354.23828125 C1.75238281 353.90183594 0.61414063 353.56539062 -0.55859375 353.21875 C-13.99887413 349.57605719 -27.63981086 348.82505241 -41.484375 348.86328125 C-42.26728912 348.86415741 -43.05020325 348.86503357 -43.85684204 348.86593628 C-66.06536761 348.94734191 -86.42495986 353.08290658 -107.64355469 359.5456543 C-110.11711234 360.2404546 -112.58448622 360.76747704 -115.109375 361.23828125 C-115.87368761 337.11997235 -113.55243151 312.84659835 -110.109375 288.98828125 C-109.87879395 287.36672119 -109.87879395 287.36672119 -109.64355469 285.71240234 C-107.29475544 270.51328836 -107.29475544 270.51328836 -101.859375 265.73828125 C-98.48649443 262.62374898 -95.4864982 259.31754093 -92.4921875 255.83984375 C-91.72367017 254.94975306 -90.94090381 254.06981006 -90.109375 253.23828125 C-89.99630503 251.51461679 -89.95254057 249.78636992 -89.93579102 248.05908203 C-89.9155336 246.38143265 -89.9155336 246.38143265 -89.89486694 244.66989136 C-89.88444366 243.43691315 -89.87402039 242.20393494 -89.86328125 240.93359375 C-89.83889958 238.96788152 -89.8145073 237.00216939 -89.78967667 235.03646278 C-89.72822121 230.0297258 -89.67810053 225.0228675 -89.62954712 220.01599121 C-89.58591608 215.60821506 -89.53485739 211.20057544 -89.4765625 206.79296875 C-89.46683851 206.05453735 -89.45711452 205.31610596 -89.44709587 204.55529785 C-89.30221107 194.36135381 -88.8800696 184.23136799 -88.1796875 174.05859375 C-88.03283246 171.7342305 -87.88625888 169.40984944 -87.73999023 167.08544922 C-87.53176606 163.8149941 -87.30292754 160.55385847 -87.0017395 157.29058838 C-85.43585817 145.1598168 -85.43585817 145.1598168 -89.74072266 134.27148438 C-92.58750724 131.20051642 -95.76128626 128.738491 -99.109375 126.23828125 C-100.46704407 123.52294312 -100.23655507 121.39311304 -100.23876953 118.3527832 C-100.24349777 116.49101189 -100.24349777 116.49101189 -100.24832153 114.59162903 C-100.24652603 113.21993984 -100.24447369 111.84825096 -100.2421875 110.4765625 C-100.24286279 109.05152876 -100.24383469 107.62649514 -100.24508667 106.20146179 C-100.24656683 103.18922853 -100.24440809 100.17702476 -100.23974609 97.16479492 C-100.23528223 94.14068625 -100.2350826 91.11663764 -100.23974609 88.0925293 C-100.25434592 78.54401938 -100.21871633 68.9971442 -100.12825012 59.44904327 C-100.10911957 57.20836441 -100.09675053 54.96772004 -100.08532715 52.72698975 C-100.06411595 49.09557712 -100.01568332 45.46543487 -99.94723129 41.83461571 C-99.91482742 39.82860375 -99.90623757 37.82225191 -99.89822388 35.81599426 C-99.86977386 34.61238754 -99.84132385 33.40878082 -99.81201172 32.16870117 C-99.79709686 31.11567307 -99.78218201 30.06264496 -99.76681519 28.97770691 C-98.87810216 25.2746122 -97.25149607 24.26972519 -94.109375 22.23828125 C-90.81958008 20.77441406 -90.81958008 20.77441406 -87.12890625 19.44140625 C-86.47484299 19.20290955 -85.82077972 18.96441284 -85.14689636 18.71868896 C-83.77444227 18.2202334 -82.40032447 17.72633711 -81.0246582 17.23681641 C-78.91437217 16.48561044 -76.80948303 15.72063401 -74.70507812 14.953125 C-64.43596042 11.23828125 -64.43596042 11.23828125 -62.109375 11.23828125 C-62.109375 23.44828125 -62.109375 35.65828125 -62.109375 48.23828125 C-55.179375 47.24828125 -55.179375 47.24828125 -48.109375 46.23828125 C-45.799375 46.23828125 -43.489375 46.23828125 -41.109375 46.23828125 C-41.109375 33.36828125 -41.109375 20.49828125 -41.109375 7.23828125 C-36.090013 5.08712611 -32.35697515 3.67479782 -27.171875 2.61328125 C-26.02847656 2.37351563 -24.88507813 2.13375 -23.70703125 1.88671875 C-15.74791192 0.45217607 -8.07627345 0.05428339 0 0 Z " fill="#003556" transform="translate(451.109375,230.76171875)"/>
<path d="M0 0 C0.81263306 -0.00626404 1.62526611 -0.01252808 2.46252441 -0.01898193 C18.82719713 -0.09872697 34.68582868 1.96943701 50.4375 6.5 C51.47938477 6.79745117 52.52126953 7.09490234 53.59472656 7.40136719 C85.00377027 16.71160133 112.57949236 33.52875266 139.7734375 51.35571289 C160.62780343 65.02029995 181.98883368 77.23968513 204.25 88.4375 C205.08917969 88.8612793 205.92835938 89.28505859 206.79296875 89.72167969 C210.60356096 91.64501216 214.42301368 93.54651852 218.25 95.4375 C218.25 104.6775 218.25 113.9175 218.25 123.4375 C211.2267018 122.55958773 205.60295398 121.17322959 199 118.9375 C197.94296875 118.58075195 196.8859375 118.22400391 195.796875 117.85644531 C185.62967528 114.34619517 175.92263986 110.12463451 166.25 105.4375 C164.85080322 104.76460937 164.85080322 104.76460937 163.42333984 104.078125 C145.23097385 95.28831751 127.73594382 85.42588151 110.31958008 75.20166016 C72.78052002 53.0533584 72.78052002 53.0533584 32.25 37.4375 C31.60321289 37.24462402 30.95642578 37.05174805 30.29003906 36.85302734 C11.37308564 31.29804896 -8.12395283 29.79128693 -27.75 30.4375 C-28.90757812 30.45683594 -30.06515625 30.47617187 -31.2578125 30.49609375 C-63.79052533 31.81498751 -98.62588801 43.45223976 -125.75 61.4375 C-125.75 54.25179279 -116.98262263 47.41376648 -112.1875 42.5 C-93.31825857 23.6881578 -68.34471277 11.14111136 -42.75 4.4375 C-41.93724609 4.22432129 -41.12449219 4.01114258 -40.28710938 3.79150391 C-26.95689475 0.495543 -13.65799338 0.04914821 0 0 Z " fill="#013355" transform="translate(401.75,604.5625)"/>
<path d="M0 0 C2.26554364 1.43456869 4.30048044 3.01532419 6.203125 4.91796875 C6.533125 3.26796875 6.863125 1.61796875 7.203125 -0.08203125 C11.163125 -0.08203125 15.123125 -0.08203125 19.203125 -0.08203125 C19.27116472 7.58552236 19.32609241 15.25296189 19.35856152 22.9207449 C19.37415277 26.48202761 19.39526955 30.04309133 19.42944336 33.60424805 C19.46856885 37.70753974 19.48288817 41.81060489 19.49609375 45.9140625 C19.51157761 47.18003769 19.52706146 48.44601288 19.54301453 49.75035095 C19.54481092 59.26822421 18.63885861 67.23764863 11.9453125 74.4140625 C4.44383871 80.88954997 -4.45191895 81.37925969 -13.98828125 81.19921875 C-20.6963463 80.70385395 -25.62879699 78.76314152 -30.734375 74.41796875 C-31.7553125 73.18046875 -31.7553125 73.18046875 -32.796875 71.91796875 C-33.6940625 70.83515625 -33.6940625 70.83515625 -34.609375 69.73046875 C-35.796875 67.91796875 -35.796875 67.91796875 -35.796875 65.91796875 C-34.3872403 65.21616344 -32.96879859 64.53202917 -31.546875 63.85546875 C-30.75796875 63.47261719 -29.9690625 63.08976562 -29.15625 62.6953125 C-26.46550012 61.8087906 -25.39127511 61.85346231 -22.796875 62.91796875 C-20.7801092 64.56430818 -18.77947926 66.23064598 -16.796875 67.91796875 C-11.62043751 69.64344791 -6.10905571 69.65442717 -0.921875 67.85546875 C2.25232678 65.88746365 3.54107732 64.50021734 4.78125 60.96875 C5.53811172 57.2895611 5.43169721 53.65131491 5.203125 49.91796875 C4.15125 50.84609375 4.15125 50.84609375 3.078125 51.79296875 C-3.50707766 56.66029246 -10.89378861 56.80021694 -18.796875 55.91796875 C-26.22734037 53.73253776 -31.08730412 49.66375605 -34.796875 42.91796875 C-38.69038345 35.11614764 -39.10081771 26.22735597 -37.03515625 17.81640625 C-34.03874146 9.02850201 -29.94386998 4.26749379 -21.796875 -0.08203125 C-15.39926119 -2.21456919 -6.36182104 -2.4612073 0 0 Z " fill="#023152" transform="translate(1007.796875,436.08203125)"/>
<path d="M0 0 C13 0 13 0 16.47265625 3.12109375 C17.38131298 4.53167834 18.24295809 5.97334256 19.0625 7.4375 C20.05352445 9.01114971 21.04574555 10.58404635 22.0390625 12.15625 C22.52793945 12.96449219 23.01681641 13.77273438 23.52050781 14.60546875 C25.82568503 18.33635623 28.38085564 21.8764896 30.9375 25.4375 C31.92247569 26.83290952 32.90684343 28.22874835 33.890625 29.625 C37.84859142 35.21211647 41.86897308 40.7543592 45.90014648 46.28881836 C46.42165283 47.00690674 46.94315918 47.72499512 47.48046875 48.46484375 C47.94348389 49.100271 48.40649902 49.73569824 48.88354492 50.39038086 C50 52 50 52 51 54 C51.33 36.18 51.66 18.36 52 0 C56.62 0 61.24 0 66 0 C66 26.73 66 53.46 66 81 C53 81 53 81 49.78125 78.1328125 C48.97525554 76.8238681 48.21667108 75.48490627 47.5 74.125 C46.60508822 72.64239737 45.70650473 71.16200619 44.8046875 69.68359375 C44.35061523 68.90999512 43.89654297 68.13639648 43.42871094 67.33935547 C41.05676815 63.45556262 38.3324272 59.84139661 35.625 56.1875 C30.28537552 48.86681376 25.13313647 41.42867048 20.04931641 33.9284668 C19.53288574 33.16703369 19.01645508 32.40560059 18.484375 31.62109375 C18.02772461 30.9448999 17.57107422 30.26870605 17.10058594 29.57202148 C16.09097525 28.03307075 16.09097525 28.03307075 15 27 C14.67 44.82 14.34 62.64 14 81 C9.38 81 4.76 81 0 81 C0 54.27 0 27.54 0 0 Z " fill="#003051" transform="translate(653,414)"/>
<path d="M0 0 C5.28 0 10.56 0 16 0 C21.9930911 15.15265634 27.57055356 30.44611251 33.09887695 45.77282715 C34.05917491 48.43344055 35.02168202 51.09325238 35.98424244 53.75304794 C37.14278031 56.95481692 38.29991757 60.15709102 39.45703125 63.359375 C39.88409866 64.54061951 40.31116608 65.72186401 40.75117493 66.93890381 C41.14886581 68.04155579 41.5465567 69.14420776 41.95629883 70.28027344 C42.30380692 71.24302185 42.651315 72.20577026 43.00935364 73.19769287 C44.04218596 76.11933421 45.02006476 79.06019428 46 82 C41.05 82 36.1 82 31 82 C28.23012174 75.31408696 26.10434536 69.01448452 24 62 C8.16 62.495 8.16 62.495 -8 63 C-9.93285685 68.87770544 -9.93285685 68.87770544 -11.85913086 74.75756836 C-12.10026611 75.48596924 -12.34140137 76.21437012 -12.58984375 76.96484375 C-12.83597412 77.7137085 -13.08210449 78.46257324 -13.33569336 79.23413086 C-14 81 -14 81 -15 82 C-17.35313555 82.07271741 -19.70833668 82.08370868 -22.0625 82.0625 C-23.99802734 82.04896484 -23.99802734 82.04896484 -25.97265625 82.03515625 C-26.97167969 82.02355469 -27.97070312 82.01195312 -29 82 C-26.63300612 73.63469651 -23.73480692 65.47601379 -20.78125 57.3046875 C-20.27684341 55.90332666 -19.77265646 54.50188674 -19.26867676 53.10037231 C-17.95047077 49.43662203 -16.62902282 45.77404919 -15.3069458 42.11169434 C-14.23215496 39.13258648 -13.15974004 36.15262608 -12.08744049 33.17262077 C-10.7987122 29.5913421 -9.5088617 26.01046802 -8.21875 22.4296875 C-7.9766127 21.7574905 -7.7344754 21.0852935 -7.48500061 20.3927269 C-5.0298887 13.57994977 -2.56579941 6.77204544 0 0 Z " fill="#033254" transform="translate(679,529)"/>
<path d="M0 0 C6.67921396 4.97717488 10.37999089 11.8845258 12 20 C12.75709318 31.18032949 11.41717813 40.2893184 4 49 C-3.71692063 56.32559606 -11.83262858 57.54624414 -22.26953125 57.37109375 C-29.5784038 56.64403313 -34.75770589 53.60877401 -39.875 48.4375 C-45.69209204 41.10768899 -47.75301269 32.18120035 -47.37890625 22.94921875 C-46.23543976 14.0490414 -42.72599977 6.96615879 -36 1 C-25.90538363 -6.26474483 -10.56838726 -6.49475435 0 0 Z " fill="#033153" transform="translate(776,439)"/>
<path d="M0 0 C3.21930675 1.99632988 5.8421622 4.27010406 8.47265625 6.98828125 C9.28669922 6.24771484 9.28669922 6.24771484 10.1171875 5.4921875 C10.83261719 4.85152344 11.54804687 4.21085937 12.28515625 3.55078125 C12.99285156 2.91269531 13.70054688 2.27460938 14.4296875 1.6171875 C19.46709382 -2.39925311 26.37199344 -1.5309241 32.47265625 -1.01171875 C37.82606477 0.53221098 41.53550082 3.20180574 44.47265625 7.98828125 C47.25374884 14.20670332 47.88503942 19.19029202 47.765625 25.95703125 C47.76138016 26.87794556 47.75713531 27.79885986 47.75276184 28.74768066 C47.7360969 31.6615237 47.69846813 34.57465064 47.66015625 37.48828125 C47.64509364 39.47525036 47.631408 41.46223042 47.61914062 43.44921875 C47.58623341 48.29584482 47.53453656 53.14194203 47.47265625 57.98828125 C42.85265625 57.98828125 38.23265625 57.98828125 33.47265625 57.98828125 C33.46854736 56.77245361 33.46443848 55.55662598 33.46020508 54.30395508 C33.43839955 49.78415795 33.38409512 45.26522962 33.32006836 40.74584961 C33.29690074 38.79150736 33.28249554 36.83704048 33.27709961 34.88256836 C33.26780093 32.06936082 33.2267915 29.25811013 33.1796875 26.4453125 C33.18362015 25.57429398 33.1875528 24.70327545 33.19160461 23.80586243 C33.08524967 19.36351915 32.90277832 17.53613108 30.07324219 13.93212891 C27.33210597 11.88322479 26.26331728 11.37000213 22.91015625 11.55078125 C21.79447266 11.58365234 21.79447266 11.58365234 20.65625 11.6171875 C18.18824482 12.03661593 16.56355196 12.60466527 14.47265625 13.98828125 C12.79944909 16.76569607 12.21501801 18.89056207 12.15380859 22.11425781 C12.1339389 22.91478577 12.11406921 23.71531372 12.09359741 24.5401001 C12.0762706 25.82155914 12.0762706 25.82155914 12.05859375 27.12890625 C12.0392276 28.01108826 12.01986145 28.89327026 11.99990845 29.80218506 C11.94022777 32.61411941 11.89377342 35.42609495 11.84765625 38.23828125 C11.80946587 40.14715306 11.77041352 42.05600784 11.73046875 43.96484375 C11.63453567 48.63918421 11.55046209 53.31360534 11.47265625 57.98828125 C6.85265625 57.98828125 2.23265625 57.98828125 -2.52734375 57.98828125 C-2.53668945 56.77245361 -2.54603516 55.55662598 -2.55566406 54.30395508 C-2.59559793 49.7842167 -2.66136629 45.26515657 -2.73486328 40.74584961 C-2.76305319 38.79151129 -2.78427758 36.83705939 -2.79833984 34.88256836 C-2.81979682 32.06955902 -2.8664607 29.25791254 -2.91796875 26.4453125 C-2.91919739 25.57429398 -2.92042603 24.70327545 -2.92169189 23.80586243 C-3.02015269 19.70900341 -3.21344198 17.49998862 -5.39941406 13.93652344 C-8.77100562 10.84963718 -11.58559041 11.3623441 -15.95703125 11.5546875 C-18.70398185 11.8252027 -18.70398185 11.8252027 -21.15234375 13.86328125 C-23.92630229 18.15030809 -23.74733428 21.94548199 -23.84375 26.93359375 C-23.8645311 27.81860565 -23.88531219 28.70361755 -23.90672302 29.615448 C-23.97220973 32.44797866 -24.03109937 35.2806035 -24.08984375 38.11328125 C-24.13302981 40.03125982 -24.17664412 41.94922879 -24.22070312 43.8671875 C-24.32789022 48.57412176 -24.42916015 53.28115092 -24.52734375 57.98828125 C-29.14734375 57.98828125 -33.76734375 57.98828125 -38.52734375 57.98828125 C-38.52734375 38.84828125 -38.52734375 19.70828125 -38.52734375 -0.01171875 C-34.56734375 -0.01171875 -30.60734375 -0.01171875 -26.52734375 -0.01171875 C-26.19734375 1.96828125 -25.86734375 3.94828125 -25.52734375 5.98828125 C-25.05683594 5.56675781 -24.58632812 5.14523437 -24.1015625 4.7109375 C-23.47894531 4.16308594 -22.85632812 3.61523438 -22.21484375 3.05078125 C-21.59996094 2.50550781 -20.98507812 1.96023438 -20.3515625 1.3984375 C-15.1532136 -2.61998638 -5.88043603 -2.35399217 0 0 Z " fill="#023153" transform="translate(1201.52734375,436.01171875)"/>
<path d="M0 0 C5.26523964 3.69218817 9.91908537 7.75725611 12 14 C12 15.65 12 17.3 12 19 C8.04 19.33 4.08 19.66 0 20 C-1.171875 17.98177083 -2.34375 15.96354167 -3.515625 13.9453125 C-5.22911472 11.69973913 -6.34796827 10.93826393 -9 10 C-14.06042547 9.34260334 -19.21523102 9.0065095 -23.625 11.875 C-26.67034553 14.59978285 -26.9462357 15.27418193 -27.25 19.375 C-26.97618955 23.34525158 -26.75806924 24.26962222 -24 27 C-21.51052654 27.97654989 -19.18967004 28.7444435 -16.625 29.4375 C-15.18138084 29.86018276 -13.7386806 30.28601557 -12.296875 30.71484375 C-11.57564453 30.92737793 -10.85441406 31.13991211 -10.11132812 31.35888672 C7.70284139 36.76823098 7.70284139 36.76823098 12.23828125 43.96484375 C15.49926494 50.34113144 16.19161929 56.44950384 14.375 63.38671875 C11.79573656 70.16879986 7.32183922 74.53163248 1.078125 78.09765625 C-7.19558068 81.54503362 -19.73292683 81.7983017 -28.0625 78.4375 C-30.078125 77.3125 -30.078125 77.3125 -32 76 C-32.71671875 75.525625 -33.4334375 75.05125 -34.171875 74.5625 C-39.88981837 70.22187145 -42.52591643 64.99899522 -44 58 C-43.67 57.34 -43.34 56.68 -43 56 C-38.71 56 -34.42 56 -30 56 C-29.46375 57.258125 -28.9275 58.51625 -28.375 59.8125 C-26.88803184 62.73480549 -26.07531604 63.94440959 -23.375 65.9375 C-16.0126454 68.2552783 -10.04218594 68.50838039 -2.71484375 65.984375 C-0.64712159 65.05025258 -0.64712159 65.05025258 0 62 C0.27001046 59.8506118 0.27001046 59.8506118 0.3125 57.5625 C0.34988281 56.80066406 0.38726563 56.03882813 0.42578125 55.25390625 C-0.17272037 52.08569124 -1.51280618 50.99568703 -4 49 C-6.37625345 47.81608777 -6.37625345 47.81608777 -9 47 C-9.96550781 46.66871094 -10.93101562 46.33742188 -11.92578125 45.99609375 C-13.98167079 45.32995419 -16.04166689 44.67636261 -18.10546875 44.03515625 C-27.31848088 41.12762771 -34.27683122 37.97775042 -40 30 C-42.05356255 23.83931234 -42.29028154 16.34711412 -39.94140625 10.25390625 C-35.89864175 3.75699745 -30.63225449 0.41254341 -23.625 -2.3125 C-15.49803828 -3.85382033 -7.56412067 -3.61396877 0 0 Z " fill="#033152" transform="translate(823,531)"/>
<path d="M0 0 C6.62066795 4.20157774 9.78482454 10.51319829 11.8125 18 C12.08283402 22.32534433 12 26.66621597 12 31 C-1.2 31 -14.4 31 -28 31 C-25.83161027 38.9810542 -25.83161027 38.9810542 -21 44 C-17.08000551 45.95999724 -12.2836767 45.35335683 -8 45 C-5.10747487 43.73452025 -3.61092487 42.83255376 -1.76171875 40.3125 C0 39 0 39 2.91796875 39.36328125 C3.99691406 39.67652344 5.07585938 39.98976563 6.1875 40.3125 C7.27417969 40.61800781 8.36085938 40.92351563 9.48046875 41.23828125 C10.72763672 41.61533203 10.72763672 41.61533203 12 42 C9.25431491 49.03581803 4.1589447 53.00148397 -2.0625 56.9375 C-9.29400119 59.59736251 -19.00499859 59.26011519 -26.0625 56.3125 C-33.80167893 52.11620973 -37.81270648 47.12696356 -41 39 C-43.5952006 28.91485338 -42.82801229 18.23619742 -38 9 C-29.93455146 -3.79017875 -13.15219013 -6.44509716 0 0 Z " fill="#033253" transform="translate(981,553)"/>
<path d="M0 0 C5.82050044 3.68288302 10.13055206 8.72641767 12.375 15.25 C13.4375 20.5 13.4375 20.5 13.4375 32.5 C0.2375 32.5 -12.9625 32.5 -26.5625 32.5 C-23.46951884 41.20108417 -23.46951884 41.20108417 -16.5625 46.5 C-11.94187295 46.92526125 -7.84959443 47.06310381 -3.5625 45.1875 C-1.34514147 43.47536603 -1.34514147 43.47536603 0.4375 40.5 C4.7275 41.16 9.0175 41.82 13.4375 42.5 C10.91824419 48.79813953 7.96989462 53.53390749 1.91796875 56.90234375 C-6.37887674 60.23769938 -14.33795429 60.92634929 -22.8125 57.875 C-30.66374093 54.31078586 -35.50980617 49.60769223 -38.5625 41.5 C-41.1811294 32.22847223 -41.11935806 20.42788525 -37.0625 11.6875 C-29.71854366 -0.72604322 -13.45556634 -5.98613778 0 0 Z " fill="#043253" transform="translate(1063.5625,664.5)"/>
<path d="M0 0 C1.15338867 -0.03673828 1.15338867 -0.03673828 2.33007812 -0.07421875 C9.19144558 -0.10895985 14.54381448 1.80276544 19.5 6.625 C23.73825069 13.5317789 24.62038069 19.41549769 24.48046875 27.34375 C24.47622391 28.26466431 24.47197906 29.18557861 24.46760559 30.13439941 C24.45094065 33.04824245 24.41331188 35.96136939 24.375 38.875 C24.35993739 40.86196911 24.34625175 42.84894917 24.33398438 44.8359375 C24.30107716 49.68256357 24.24938031 54.52866078 24.1875 59.375 C19.8975 59.375 15.6075 59.375 11.1875 59.375 C10.8575 57.725 10.5275 56.075 10.1875 54.375 C9.465625 54.99375 8.74375 55.6125 8 56.25 C1.53543828 61.13433552 -4.952688 61.1249096 -12.8125 60.375 C-17.60341428 59.11700836 -20.15096607 57.16884072 -23.3125 53.375 C-25.74558471 48.3459008 -25.55244949 42.8038131 -24.8125 37.375 C-22.52050663 32.4383989 -19.54946642 29.97568745 -14.8125 27.375 C-9.3017358 25.47807865 -4.17741351 24.97442856 1.625 24.75 C2.45193359 24.71132813 3.27886719 24.67265625 4.13085938 24.6328125 C6.14941073 24.53946908 8.16842331 24.45619039 10.1875 24.375 C9.93087755 22.93489519 9.65659179 21.4979313 9.375 20.0625 C9.22417969 19.26199219 9.07335938 18.46148437 8.91796875 17.63671875 C8.07300541 15.02049535 7.43753288 13.95300978 5.1875 12.375 C1.47074528 11.69406784 -2.08728654 11.76064696 -5.8125 12.375 C-8.33855704 14.66048018 -9.32318645 16.3963729 -10.8125 19.375 C-15.1025 19.375 -19.3925 19.375 -23.8125 19.375 C-23.27459337 12.65116709 -21.33137549 8.70011584 -16.375 4.125 C-10.97328067 0.43602094 -6.37032277 0.01052076 0 0 Z " fill="#053354" transform="translate(1126.8125,434.625)"/>
<path d="M0 0 C5.95700325 6.28794787 6.82847528 13.54426436 6.640625 21.87890625 C6.63496521 22.8427977 6.62930542 23.80668915 6.62347412 24.79978943 C6.60127407 27.84622121 6.55110936 30.89143016 6.5 33.9375 C6.47991381 36.01625893 6.46166677 38.09503649 6.4453125 40.17382812 C6.4014631 45.24134892 6.33255081 50.30796791 6.25 55.375 C2.29 55.375 -1.67 55.375 -5.75 55.375 C-6.245 52.405 -6.245 52.405 -6.75 49.375 C-8.1421875 50.5815625 -8.1421875 50.5815625 -9.5625 51.8125 C-13.81262108 55.49593827 -17.53180441 55.55935376 -23.0625 55.625 C-24.35800781 55.65078125 -25.65351562 55.6765625 -26.98828125 55.703125 C-31.65481683 55.29607517 -34.91707833 54.04683354 -38.39453125 50.875 C-42.83774037 45.16867123 -43.54527939 40.45519572 -42.75 33.375 C-40.13606367 28.14712734 -36.56047049 24.74420357 -31.3125 22.1875 C-25.67435878 20.39979669 -20.22506472 20.24373794 -14.375 20.3125 C-13.63894531 20.31701172 -12.90289063 20.32152344 -12.14453125 20.32617188 C-10.34631842 20.33784858 -8.54814803 20.35577989 -6.75 20.375 C-7.03359887 18.9358866 -7.32721399 17.49874482 -7.625 16.0625 C-7.78742187 15.26199219 -7.94984375 14.46148438 -8.1171875 13.63671875 C-8.69478999 11.12198882 -8.69478999 11.12198882 -10.75 8.375 C-14.4669732 7.13600893 -17.89438861 6.69106114 -21.75 7.375 C-24.96954645 9.90953657 -26.45432435 11.48797305 -27.75 15.375 C-32.04 15.045 -36.33 14.715 -40.75 14.375 C-40.31330642 8.91633027 -39.31112098 5.57529654 -35.75 1.375 C-24.90257276 -6.8886458 -11.64914825 -6.8835876 0 0 Z " fill="#023051" transform="translate(886.75,554.625)"/>
<path d="M0 0 C5.02940948 3.19130691 8.53898602 7.65341106 10.25 13.375 C10.518335 16.74821019 10.48258464 20.1063164 10.4453125 23.48828125 C10.4424826 24.45783249 10.43965271 25.42738373 10.43673706 26.42631531 C10.42556991 29.51350405 10.40047152 32.60039939 10.375 35.6875 C10.36496573 37.78450101 10.35584066 39.88150658 10.34765625 41.97851562 C10.32564188 47.1107896 10.29113571 52.2428451 10.25 57.375 C6.29 57.375 2.33 57.375 -1.75 57.375 C-1.75 55.395 -1.75 53.415 -1.75 51.375 C-2.41 51.375 -3.07 51.375 -3.75 51.375 C-4.08 52.365 -4.41 53.355 -4.75 54.375 C-11.63799929 59.10205834 -18.56005494 59.48097628 -26.75 58.375 C-31.15424114 56.74429463 -33.87258522 54.53545181 -36.6875 50.8125 C-39.10586323 45.26449023 -39.72271705 40.07699181 -37.625 34.25 C-33.65421411 28.16146163 -28.67409577 25.28013971 -21.75 23.375 C-18.41754225 22.91903589 -15.11017063 22.77782717 -11.75 22.6875 C-10.87988281 22.65333984 -10.00976562 22.61917969 -9.11328125 22.58398438 C-6.99261185 22.50242017 -4.87133109 22.43701472 -2.75 22.375 C-3.57261329 16.3882695 -3.57261329 16.3882695 -6.55859375 11.3359375 C-9.13108976 10.20789112 -11.00642806 9.97460568 -13.8125 10 C-14.66972656 9.99226562 -15.52695312 9.98453125 -16.41015625 9.9765625 C-19.23142216 10.4569784 -20.08153723 11.07761512 -21.75 13.375 C-22.08 14.695 -22.41 16.015 -22.75 17.375 C-27.37 17.375 -31.99 17.375 -36.75 17.375 C-35.54635853 10.1531512 -34.06223028 5.96107751 -28.2421875 1.12109375 C-20.91990764 -3.59077692 -7.83507706 -3.55868004 0 0 Z " fill="#033051" transform="translate(878.75,664.625)"/>
<path d="M0 0 C4.62 0 9.24 0 14 0 C14.33 9.57 14.66 19.14 15 29 C16.98 27.68 18.96 26.36 21 25 C27.38942085 22.87019305 35.40009033 22.80395736 41.5625 25.6875 C47.50620289 29.27120321 50.20152579 34.4142398 52 41 C52.37339214 44.33286574 52.35209162 47.61849235 52.29296875 50.96875 C52.28872391 51.88966431 52.28447906 52.81057861 52.28010559 53.75939941 C52.26344065 56.67324245 52.22581188 59.58636939 52.1875 62.5 C52.17243739 64.48696911 52.15875175 66.47394917 52.14648438 68.4609375 C52.11357716 73.30756357 52.06188031 78.15366078 52 83 C47.38 83 42.76 83 38 83 C37.99589111 81.78417236 37.99178223 80.56834473 37.98754883 79.31567383 C37.9657433 74.7958767 37.91143887 70.27694837 37.84741211 65.75756836 C37.82424449 63.80322611 37.80983929 61.84875923 37.80444336 59.89428711 C37.79514468 57.08107957 37.75413525 54.26982888 37.70703125 51.45703125 C37.7109639 50.58601273 37.71489655 49.7149942 37.71894836 48.81758118 C37.6126334 44.37690775 37.43840308 42.55408165 34.59619141 38.96191406 C30.80447226 36.09655248 27.68944812 35.57068433 23 36 C18.91172931 38.00696925 16.53593327 39.71879175 15 44 C14.66885382 46.9710657 14.62739228 49.93445666 14.5859375 52.921875 C14.56657135 53.78186096 14.5472052 54.64184692 14.5272522 55.52789307 C14.46758186 58.26849521 14.4211214 61.00913964 14.375 63.75 C14.33680866 65.61069517 14.29775625 67.47137288 14.2578125 69.33203125 C14.16189065 73.88787864 14.07781332 78.44380879 14 83 C9.38 83 4.76 83 0 83 C0 55.61 0 28.22 0 0 Z " fill="#033354" transform="translate(1041,411)"/>
<path d="M0 0 C4.0875017 2.22954638 5.84511644 4.90818545 7.39126587 9.26000977 C8.81653374 15.67532285 8.35846813 22.42890091 8.29296875 28.96875 C8.28736595 30.61641044 8.28309909 32.26407592 8.28010559 33.91174316 C8.26871056 38.2256069 8.23929012 42.53916241 8.20599365 46.85290527 C8.17517688 51.26387362 8.16157556 55.67489229 8.14648438 60.0859375 C8.11441461 68.7241148 8.06169108 77.36198341 8 86 C-0.25 86 -8.5 86 -17 86 C-17.09061785 76.63743375 -17.1638979 67.27516207 -17.20724869 57.91225529 C-17.22806215 53.56397683 -17.25626449 49.21601576 -17.30175781 44.86791992 C-17.34543992 40.66630908 -17.36918397 36.4650022 -17.37950897 32.26318169 C-17.38686045 30.66569679 -17.40121572 29.06822724 -17.42292023 27.47087288 C-17.64227229 10.64793296 -17.64227229 10.64793296 -13 4 C-8.8040327 0.17700757 -5.62862454 -0.81870902 0 0 Z " fill="#FAFBFB" transform="translate(430,377)"/>
<path d="M0 0 C4.62 0 9.24 0 14 0 C17.45346729 8.46921739 20.61787478 17.03361934 23.75 25.625 C24.26158033 27.02479018 24.77329812 28.42453013 25.28515625 29.82421875 C26.52502022 33.21556916 27.76303173 36.60759217 29 40 C32.78927786 31.19949142 36.12929785 22.28557825 39.3125 13.25 C39.77118256 11.95562217 40.23016549 10.66135075 40.68945312 9.3671875 C41.79590424 6.24583068 42.89837187 3.12306227 44 0 C48.29 0 52.58 0 57 0 C54.91347453 7.19332312 52.54493333 14.21563676 49.9453125 21.23828125 C49.5618869 22.28090622 49.1784613 23.32353119 48.78341675 24.39775085 C47.9763084 26.59079465 47.16778468 28.78331802 46.35791016 30.9753418 C45.13268847 34.29168936 43.91165458 37.60955406 42.69140625 40.92773438 C40.79536492 46.07883185 38.89024309 51.22647583 36.97702026 56.37121582 C36.37012608 58.00413366 35.76465389 59.63758164 35.16140747 61.27185059 C34.48164782 63.11168043 33.79398953 64.94858712 33.10546875 66.78515625 C32.75637451 67.72109619 32.40728027 68.65703613 32.04760742 69.62133789 C29.75261223 74.83227663 26.59243597 78.57183027 21.375 80.9375 C16.03084349 82.64263943 10.54311872 82.18896996 5 82 C5 78.04 5 74.08 5 70 C6.7325 69.938125 8.465 69.87625 10.25 69.8125 C14.85342047 69.4052065 14.85342047 69.4052065 18.625 66.8125 C20.63934549 62.69224785 21.36263666 59.48607807 20.26245117 54.97753906 C19.86002197 53.91760742 19.45759277 52.85767578 19.04296875 51.765625 C18.5941333 50.56325195 18.14529785 49.36087891 17.68286133 48.12207031 C17.18468647 46.83127253 16.68622647 45.54058476 16.1875 44.25 C15.68587344 42.92070701 15.18548058 41.59094786 14.6862793 40.26074219 C13.14409094 36.1661032 11.57469367 32.08222887 10 28 C9.49768744 26.69532556 8.99540814 25.39063831 8.49316406 24.0859375 C8.00851947 22.82810345 7.52382008 21.57029051 7.0390625 20.3125 C6.57991455 19.12108398 6.1207666 17.92966797 5.64770508 16.70214844 C4.76988805 14.43256849 3.88705485 12.16492116 2.9987793 9.89941406 C2.40577026 8.37912598 2.40577026 8.37912598 1.80078125 6.828125 C1.45184814 5.9402832 1.10291504 5.05244141 0.7434082 4.13769531 C0 2 0 2 0 0 Z " fill="#033152" transform="translate(1038,552)"/>
<path d="M0 0 C6.08043693 3.6666529 9.62992766 8.16720467 11.44140625 15.05859375 C11.70322216 18.39232122 11.67464766 21.70855946 11.63671875 25.05078125 C11.63388885 25.9967215 11.63105896 26.94266174 11.62814331 27.91726685 C11.61699557 30.92284069 11.5919009 33.92811077 11.56640625 36.93359375 C11.55636946 38.97786026 11.54724484 41.02213147 11.5390625 43.06640625 C11.51707392 48.06391819 11.48258134 53.06120455 11.44140625 58.05859375 C7.15140625 58.05859375 2.86140625 58.05859375 -1.55859375 58.05859375 C-1.56793945 56.90858887 -1.57728516 55.75858398 -1.58691406 54.57373047 C-1.62690759 50.29062743 -1.6926921 46.00823562 -1.76611328 41.72558594 C-1.79426873 39.87509322 -1.81551021 38.02448146 -1.82958984 36.17382812 C-1.85109495 33.50719495 -1.89778235 30.84198491 -1.94921875 28.17578125 C-1.95044739 27.35367157 -1.95167603 26.53156189 -1.95294189 25.68453979 C-2.08744758 20.36153568 -3.0548173 17.29883801 -6.55859375 13.05859375 C-9.76644393 10.70617028 -12.65508627 10.59017285 -16.55859375 11.05859375 C-20.9790017 13.39880972 -23.44945572 15.53998857 -25.55859375 20.05859375 C-26.01234787 22.99122361 -26.04679825 25.89559781 -26.0703125 28.859375 C-26.0882637 29.69574997 -26.1062149 30.53212494 -26.12471008 31.3938446 C-26.17868884 34.05287709 -26.21266836 36.71173136 -26.24609375 39.37109375 C-26.27927786 41.17906119 -26.31376853 42.98700515 -26.34960938 44.79492188 C-26.43440799 49.21601699 -26.50127816 53.63706039 -26.55859375 58.05859375 C-30.84859375 58.05859375 -35.13859375 58.05859375 -39.55859375 58.05859375 C-39.55859375 38.91859375 -39.55859375 19.77859375 -39.55859375 0.05859375 C-35.59859375 0.05859375 -31.63859375 0.05859375 -27.55859375 0.05859375 C-27.22859375 2.03859375 -26.89859375 4.01859375 -26.55859375 6.05859375 C-26.08808594 5.63707031 -25.61757813 5.21554687 -25.1328125 4.78125 C-24.51019531 4.23339844 -23.88757813 3.68554688 -23.24609375 3.12109375 C-22.63121094 2.57582031 -22.01632812 2.03054688 -21.3828125 1.46875 C-15.99896129 -2.69307074 -6.12502095 -2.25363366 0 0 Z " fill="#012E4F" transform="translate(949.55859375,435.94140625)"/>
<path d="M0 0 C4.56113952 3.93916595 7.79254896 8.0411284 9 14 C9.08312165 15.43461576 9.11785375 16.87255505 9.11352539 18.30957031 C9.11344986 19.15013977 9.11337433 19.99070923 9.11329651 20.85675049 C9.10813522 21.75480408 9.10297394 22.65285767 9.09765625 23.578125 C9.0962413 24.5046991 9.09482635 25.43127319 9.09336853 26.38592529 C9.08777824 29.34064992 9.0752275 32.29529833 9.0625 35.25 C9.05748375 37.25520724 9.05292106 39.26041567 9.04882812 41.265625 C9.03781199 46.17711263 9.020554 51.0885434 9 56 C4.71 56 0.42 56 -4 56 C-4.0093457 54.8855249 -4.01869141 53.7710498 -4.02832031 52.62280273 C-4.0683711 48.46452738 -4.13417087 44.30698019 -4.20751953 40.14916992 C-4.23564201 38.35401811 -4.25689975 36.55874448 -4.27099609 34.76342773 C-4.29254734 32.173686 -4.33925723 29.58539543 -4.390625 26.99609375 C-4.39185364 26.20101913 -4.39308228 25.40594452 -4.39434814 24.58677673 C-4.53977231 18.97988775 -5.78494042 15.62211829 -9 11 C-12.70221166 9.14889417 -16.95906917 9.53545205 -21 10 C-24.62836748 12.1165477 -26.53869489 14.10160231 -28 18 C-28.23687056 20.92877937 -28.37228572 23.77161186 -28.4140625 26.703125 C-28.43342865 27.54091492 -28.4527948 28.37870483 -28.4727478 29.24188232 C-28.53240724 31.91115213 -28.57887413 34.58046539 -28.625 37.25 C-28.66319236 39.06251854 -28.70224482 40.87501918 -28.7421875 42.6875 C-28.83809752 47.12485415 -28.9221788 51.56229325 -29 56 C-33.29 56 -37.58 56 -42 56 C-42 36.86 -42 17.72 -42 -2 C-38.04 -2 -34.08 -2 -30 -2 C-29.67 -0.02 -29.34 1.96 -29 4 C-28.29875 3.21625 -27.5975 2.4325 -26.875 1.625 C-19.58387573 -5.03211347 -8.30281404 -4.81563214 0 0 Z " fill="#012F50" transform="translate(726,666)"/>
<path d="M0 0 C1.051875 -0.00257813 2.10375 -0.00515625 3.1875 -0.0078125 C6 0.125 6 0.125 9 1.125 C9 4.755 9 8.385 9 12.125 C7.618125 12.021875 6.23625 11.91875 4.8125 11.8125 C1.16420274 11.82973605 0.16033386 12.01811076 -3 14.125 C-5.57797862 17.99196793 -5.76592131 20.52145252 -6 25.125 C-1.38 25.125 3.24 25.125 8 25.125 C8 28.755 8 32.385 8 36.125 C3.38 36.125 -1.24 36.125 -6 36.125 C-6 51.635 -6 67.145 -6 83.125 C-10.29 83.125 -14.58 83.125 -19 83.125 C-19 67.615 -19 52.105 -19 36.125 C-21.97 36.125 -24.94 36.125 -28 36.125 C-28 32.495 -28 28.865 -28 25.125 C-25.03 25.125 -22.06 25.125 -19 25.125 C-19.03480469 24.32835937 -19.06960938 23.53171875 -19.10546875 22.7109375 C-19.38643605 11.71307465 -19.38643605 11.71307465 -16 7.125 C-10.87950991 2.00450991 -7.38753616 -0.01810671 0 0 Z " fill="#023050" transform="translate(927,526.875)"/>
<path d="M0 0 C4.62 0 9.24 0 14 0 C14 4.95 14 9.9 14 15 C18.62 15 23.24 15 28 15 C28 18.96 28 22.92 28 27 C23.38 27 18.76 27 14 27 C14.05109664 31.34321402 14.11406994 35.68286823 14.20751953 40.02490234 C14.23570088 41.50102196 14.25692966 42.97729169 14.27099609 44.45361328 C14.29246698 46.57923057 14.33913043 48.70304879 14.390625 50.828125 C14.41157227 52.1059082 14.43251953 53.38369141 14.45410156 54.70019531 C15.0834962 58.50471135 15.92723039 59.73853202 19 62 C21.60258427 62.26902765 21.60258427 62.26902765 24.25 61.75 C25.8175 61.5025 27.385 61.255 29 61 C29 64.96 29 68.92 29 73 C13.34918717 76.13016257 13.34918717 76.13016257 7.375 72.1875 C6.199375 71.1046875 6.199375 71.1046875 5 70 C4.4225 69.54625 3.845 69.0925 3.25 68.625 C-0.33664388 63.96236296 -0.27439528 58.38580591 -0.1953125 52.7578125 C-0.1924826 51.98944061 -0.18965271 51.22106873 -0.18673706 50.42941284 C-0.17561311 47.99444479 -0.1505236 45.55985538 -0.125 43.125 C-0.11496011 41.46615118 -0.10583603 39.80729654 -0.09765625 38.1484375 C-0.07569937 34.09881421 -0.04122406 30.04947113 0 26 C-2.97 26 -5.94 26 -9 26 C-9 22.37 -9 18.74 -9 15 C-6.03 15 -3.06 15 0 15 C0 10.05 0 5.1 0 0 Z " fill="#073555" transform="translate(778,649)"/>
<path d="M0 0 C4.95 0 9.9 0 15 0 C16.85959883 5.05074347 18.71076398 10.10446745 20.55419922 15.16113281 C21.18242539 16.88072764 21.81294339 18.599487 22.44580078 20.31738281 C23.35533558 22.78754797 24.25657188 25.26060558 25.15625 27.734375 C25.44060913 28.50118591 25.72496826 29.26799683 26.01794434 30.05804443 C27.29839231 33.602414 28 36.18760599 28 40 C28.66 40 29.32 40 30 40 C30.1043335 39.1754834 30.20866699 38.3509668 30.31616211 37.50146484 C31.10984998 33.4375336 32.43538269 29.82116386 33.94140625 25.9765625 C34.22853989 25.23038666 34.51567352 24.48421082 34.81150818 23.71542358 C35.72319126 21.34985577 36.64270911 18.9874255 37.5625 16.625 C38.18476607 15.01452424 38.80651636 13.40384908 39.42773438 11.79296875 C40.94586371 7.85964658 42.47102353 3.92911764 44 0 C48.29 0 52.58 0 57 0 C54.90427437 7.3452985 52.39131427 14.38918935 49.55078125 21.4765625 C49.13330124 22.52782318 48.71582123 23.57908386 48.28569031 24.66220093 C46.96521189 27.98470897 45.63895885 31.30487566 44.3125 34.625 C43.410423 36.89177419 42.50872656 39.15869986 41.60742188 41.42578125 C39.40934272 46.95228151 37.20608539 52.47669109 35 58 C30.71 58 26.42 58 22 58 C18.52781267 49.19405524 15.05807831 40.38715096 11.59165955 31.57893372 C9.77724057 26.96982085 7.95695385 22.36308584 6.1328125 17.7578125 C5.31763114 15.6927388 4.50252134 13.62763686 3.6875 11.5625 C3.30924072 10.61173584 2.93098145 9.66097168 2.54125977 8.68139648 C2.20151123 7.81844971 1.8617627 6.95550293 1.51171875 6.06640625 C1.21740967 5.32334229 0.92310059 4.58027832 0.61987305 3.81469727 C0 2 0 2 0 0 Z " fill="#033153" transform="translate(964,664)"/>
<path d="M0 0 C4.62 0 9.24 0 14 0 C14 4.62 14 9.24 14 14 C18.62 14 23.24 14 28 14 C28 17.96 28 21.92 28 26 C23.38 26 18.76 26 14 26 C14.05109664 30.34321402 14.11406994 34.68286823 14.20751953 39.02490234 C14.23570088 40.50102196 14.25692966 41.97729169 14.27099609 43.45361328 C14.29246698 45.57923057 14.33913043 47.70304879 14.390625 49.828125 C14.41157227 51.1059082 14.43251953 52.38369141 14.45410156 53.70019531 C15.0834962 57.50471135 15.92723039 58.73853202 19 61 C21.60258427 61.26902765 21.60258427 61.26902765 24.25 60.75 C25.8175 60.5025 27.385 60.255 29 60 C29 63.96 29 67.92 29 72 C25.43559582 73.18813473 22.44525218 73.24187953 18.6875 73.3125 C17.39199219 73.34988281 16.09648438 73.38726562 14.76171875 73.42578125 C9.71473486 72.85452347 6.73433371 70.7962742 3.25 67.1875 C0.18947973 61.83158952 -0.24396851 56.37407985 -0.1953125 50.31640625 C-0.1924826 49.61603745 -0.18965271 48.91566864 -0.18673706 48.19407654 C-0.17564885 45.9833683 -0.15056703 43.77308329 -0.125 41.5625 C-0.11495546 40.05274028 -0.1058322 38.54297412 -0.09765625 37.03320312 C-0.07574714 33.35533403 -0.04129758 29.6777084 0 26 C-2.97 26 -5.94 26 -9 26 C-9 22.04 -9 18.08 -9 14 C-6.03 14 -3.06 14 0 14 C0 9.38 0 4.76 0 0 Z " fill="#083555" transform="translate(843,422)"/>
<path d="M0 0 C4.62 0 9.24 0 14 0 C14 4.95 14 9.9 14 15 C18.62 15 23.24 15 28 15 C28 18.63 28 22.26 28 26 C23.38 26 18.76 26 14 26 C14.0970598 30.34214875 14.19986186 34.68337018 14.31738281 39.02490234 C14.35560666 40.50105536 14.39047103 41.97729943 14.421875 43.45361328 C14.46766986 45.57878094 14.52563837 47.70332542 14.5859375 49.828125 C14.63306885 51.7447998 14.63306885 51.7447998 14.68115234 53.70019531 C14.97511752 56.74248726 15.29775581 58.499947 17 61 C20.93228039 62.96614019 24.87781812 62.03054547 29 61 C29 64.96 29 68.92 29 73 C23.1194144 74.9601952 15.55913353 75.13165201 9.62890625 73.24609375 C5.18477486 70.80898944 2.79892392 67.97949472 0.93798828 63.36865234 C-0.13732015 59.50683407 -0.25280875 55.94649643 -0.1953125 51.9765625 C-0.1924826 51.23038666 -0.18965271 50.48421082 -0.18673706 49.71542358 C-0.17561687 47.35178012 -0.15052821 44.98852732 -0.125 42.625 C-0.11495962 41.01432842 -0.10583562 39.40365085 -0.09765625 37.79296875 C-0.0757044 33.86183056 -0.04123185 29.93098133 0 26 C-2.97 26 -5.94 26 -9 26 C-9 22.37 -9 18.74 -9 15 C-6.03 15 -3.06 15 0 15 C0 10.05 0 5.1 0 0 Z " fill="#053454" transform="translate(904,649)"/>
<path d="M0 0 C4.29 0 8.58 0 13 0 C13 4.62 13 9.24 13 14 C17.95 14 22.9 14 28 14 C28 17.96 28 21.92 28 26 C23.05 26 18.1 26 13 26 C13.0970745 30.19974926 13.19988469 34.39854303 13.31738281 38.59765625 C13.35560024 40.02530398 13.39046572 41.45304563 13.421875 42.88085938 C13.46768401 44.93653868 13.5256498 46.99157554 13.5859375 49.046875 C13.63306885 50.90070801 13.63306885 50.90070801 13.68115234 52.79199219 C13.97881277 55.78682982 14.33196569 57.52944185 16 60 C20.12801588 62.06400794 24.68632355 61.07841911 29 60 C29 63.96 29 67.92 29 72 C25.36445419 73.2118486 21.97592248 73.2609802 18.1875 73.3125 C17.48818359 73.34150391 16.78886719 73.37050781 16.06835938 73.40039062 C10.93664503 73.46279688 7.93389843 72.56351712 4 69 C0.42696656 63.63226224 -0.57169823 58.91507904 -0.390625 52.5625 C-0.38496521 51.79695801 -0.37930542 51.03141602 -0.37347412 50.24267578 C-0.35130835 47.82777979 -0.30115539 45.41443777 -0.25 43 C-0.22990915 41.35028204 -0.21166294 39.70054052 -0.1953125 38.05078125 C-0.15150943 34.03326695 -0.08262602 30.01689574 0 26 C-2.97 26 -5.94 26 -9 26 C-9 22.04 -9 18.08 -9 14 C-6.03 14 -3.06 14 0 14 C0 9.38 0 4.76 0 0 Z " fill="#043252" transform="translate(801,422)"/>
<path d="M0 0 C4.29 0 8.58 0 13 0 C13 4.95 13 9.9 13 15 C17.62 15 22.24 15 27 15 C27 18.63 27 22.26 27 26 C22.38 26 17.76 26 13 26 C13.0970745 30.19974926 13.19988469 34.39854303 13.31738281 38.59765625 C13.35560024 40.02530398 13.39046572 41.45304563 13.421875 42.88085938 C13.46768401 44.93653868 13.5256498 46.99157554 13.5859375 49.046875 C13.63306885 50.90070801 13.63306885 50.90070801 13.68115234 52.79199219 C13.97881277 55.78682982 14.33196569 57.52944185 16 60 C18.62315032 61.31157516 20.23033436 60.89649988 23.125 60.5625 C24.73375 60.376875 26.3425 60.19125 28 60 C28 63.96 28 67.92 28 72 C24.57008462 73.14330513 21.8013584 73.20381651 18.1875 73.25 C16.98480469 73.27578125 15.78210938 73.3015625 14.54296875 73.328125 C9.4118545 72.85291707 6.17552216 71.27083476 2.6875 67.5 C-0.32201461 63.04145984 -0.13231681 59.01620239 -0.09765625 53.83203125 C-0.0962413 53.03721848 -0.09482635 52.2424057 -0.09336853 51.42350769 C-0.08777378 48.88646675 -0.07522228 46.34951425 -0.0625 43.8125 C-0.05748432 42.09179815 -0.05292153 40.37109492 -0.04882812 38.65039062 C-0.03780607 34.4335597 -0.02054506 30.21679484 0 26 C-2.97 26 -5.94 26 -9 26 C-9 22.37 -9 18.74 -9 15 C-6.03 15 -3.06 15 0 15 C0 10.05 0 5.1 0 0 Z " fill="#002E4F" transform="translate(1006,537)"/>
<path d="M0 0 C4.62 0 9.24 0 14 0 C14 26.4 14 52.8 14 80 C9.38 80 4.76 80 0 80 C0 53.6 0 27.2 0 0 Z " fill="#013051" transform="translate(654,642)"/>
<path d="M0 0 C4.29 0 8.58 0 13 0 C13 26.4 13 52.8 13 80 C8.71 80 4.42 80 0 80 C0 53.6 0 27.2 0 0 Z " fill="#002E4E" transform="translate(733,530)"/>
<path d="M0 0 C4.50911167 2.17403598 6.85819183 4.49093016 9 9 C11.37069351 16.7586333 10.64337769 24.83887834 7 32 C2.19132806 36.68845515 -2.0058503 37.35689242 -8.4921875 37.28125 C-12.20729058 36.86460293 -14.25472199 35.47744601 -17 33 C-21.57132637 26.85235419 -21.73701355 19.41165739 -21 12 C-19.71027639 7.56335077 -17.73165428 4.71380905 -14.4375 1.5 C-9.55693237 -0.62970224 -5.24491229 -0.77268797 0 0 Z " fill="#FCFDFD" transform="translate(764,447)"/>
<path d="M0 0 C3.98561154 2.62688033 6.23980531 5.28191592 7.75 9.8125 C8.40700242 17.0826088 8.54451543 23.92896484 3.75 29.8125 C-0.01959501 33.17173403 -4.07772141 34.55045443 -9.1953125 34.26171875 C-14.29050093 33.1477517 -18.03778622 30.32776723 -21.25 26.3125 C-23.10380838 19.82417068 -23.80617203 11.96045896 -20.6875 5.75 C-14.99011861 -1.11607501 -8.60292132 -3.1433751 0 0 Z " fill="#FBFCFC" transform="translate(1006.25,447.1875)"/>
<path d="M0 0 C4.62 0 9.24 0 14 0 C14 19.14 14 38.28 14 58 C9.38 58 4.76 58 0 58 C0 38.86 0 19.72 0 0 Z " fill="#003757" transform="translate(942,664)"/>
<path d="M0 0 C4.62 0 9.24 0 14 0 C14 19.14 14 38.28 14 58 C9.38 58 4.76 58 0 58 C0 38.86 0 19.72 0 0 Z " fill="#003255" transform="translate(747,664)"/>
<path d="M0 0 C4.62 0 9.24 0 14 0 C14 19.14 14 38.28 14 58 C9.38 58 4.76 58 0 58 C0 38.86 0 19.72 0 0 Z " fill="#003758" transform="translate(882,436)"/>
<path d="M0 0 C4.29 0 8.58 0 13 0 C13 19.14 13 38.28 13 58 C8.71 58 4.42 58 0 58 C0 38.86 0 19.72 0 0 Z " fill="#012E4E" transform="translate(817,664)"/>
<path d="M0 0 C0.66 0 1.32 0 2 0 C3.40803241 4.0560479 4.81381041 8.112868 6.2175293 12.17041016 C6.6951042 13.54985507 7.17328817 14.92908927 7.65209961 16.30810547 C8.34129546 18.29339031 9.02827791 20.27942933 9.71484375 22.265625 C10.33540649 24.05661621 10.33540649 24.05661621 10.96850586 25.88378906 C12 29 12 29 13 33 C5.08 33 -2.84 33 -11 33 C-7.37 22.11 -3.74 11.22 0 0 Z " fill="#F9FBFB" transform="translate(686,546)"/>
<path d="M0 0 C0.41813284 6.06292614 0.13274522 9.19707988 -4 14 C-7.74317159 17.20843279 -11.14728951 17.47144767 -15.91015625 17.28125 C-18.79879605 16.89249848 -20.1677115 16.29036062 -22 14 C-23 11.125 -23 11.125 -23 8 C-21.21235224 4.85373995 -19.73451893 3.36725947 -16.5 1.75 C-11.12356836 0.59790751 -5.50881467 0 0 0 Z " fill="#F8F9FA" transform="translate(880,583)"/>
<path d="M0 0 C-0.40069421 5.81006609 -1.07244494 9.43554411 -5 14 C-9.33644569 16.8909638 -12.82411517 17.75285598 -18 17 C-21.41521211 14.52942103 -22.77785768 13.08849737 -23.625 8.9375 C-22.78187019 4.97478989 -21.3570171 4.19132341 -18 2 C-14.58984375 1.171875 -14.58984375 1.171875 -10.9375 0.75 C-9.72964844 0.60046875 -8.52179688 0.4509375 -7.27734375 0.296875 C-4 0 -4 0 0 0 Z " fill="#F6F9FA" transform="translate(1138,468)"/>
<path d="M0 0 C0.4705482 5.76421539 -0.31787459 9.58828936 -4 14 C-8.30630406 16.96656502 -11.82041951 17.65921933 -17 17 C-19.9375 15.4375 -19.9375 15.4375 -22 13 C-22.625 9.5 -22.625 9.5 -22 6 C-17.91828113 1.8079644 -14.16569669 0.91725657 -8.5 0.4375 C-7.5409375 0.35371094 -6.581875 0.26992188 -5.59375 0.18359375 C-3.73281868 0.0518712 -1.86558736 0 0 0 Z " fill="#F7FAFA" transform="translate(876,696)"/>
<path d="M0 0 C3.76562831 1.95226222 6.68285493 4.91685027 8 9 C8 10.32 8 11.64 8 13 C-0.91 13 -9.82 13 -19 13 C-16 4 -16 4 -13.4375 1.4375 C-8.82647373 -0.49074735 -4.92431509 -0.93530011 0 0 Z " fill="#FAFBFC" transform="translate(1056,674)"/>
<path d="M0 0 C3.0975662 0.91393538 4.3436872 1.86453285 7 4 C7.99 6.97 8.98 9.94 10 13 C1.09 13 -7.82 13 -17 13 C-15.95763751 6.74582506 -15.51143164 5.86694141 -11 2 C-7.25730649 -0.495129 -4.32988952 -0.61174586 0 0 Z " fill="#F8FAFB" transform="translate(970,561)"/>
<path d="M0 0 C4.62 0 9.24 0 14 0 C14 19.14 14 38.28 14 58 C9.38 58 4.76 58 0 58 C0 38.86 0 19.72 0 0 Z M2 2 C2 20.15 2 38.3 2 57 C5.3 57 8.6 57 12 57 C12 38.85 12 20.7 12 2 C8.7 2 5.4 2 2 2 Z " fill="#1B2E4C" transform="translate(942,664)"/>
<path d="M0 0 C4.62 0 9.24 0 14 0 C14 19.14 14 38.28 14 58 C9.38 58 4.76 58 0 58 C0 38.86 0 19.72 0 0 Z M2 2 C2 20.15 2 38.3 2 57 C5.3 57 8.6 57 12 57 C12 38.85 12 20.7 12 2 C8.7 2 5.4 2 2 2 Z " fill="#07284C" transform="translate(882,436)"/>
<path d="M0 0 C2.78251058 2.33371855 2.97502272 3.82828118 3.5 7.4375 C3 11 3 11 0.875 13.9375 C-2 16 -2 16 -5 16.625 C-9.10703441 15.76936783 -10.55401113 14.38121991 -13 11 C-13.5625 7.4375 -13.5625 7.4375 -13 4 C-8.99828585 -1.06883792 -6.21426986 -1.41728962 0 0 Z " fill="#083353" transform="translate(954,640)"/>
<path d="M0 0 C2.78251058 2.33371855 2.97502272 3.82828118 3.5 7.4375 C3 11 3 11 0.875 13.9375 C-2 16 -2 16 -5 16.625 C-9.0743356 15.77618008 -10.54405875 14.32274404 -13 11 C-13.7446324 7.02862719 -13.37266878 5.55900317 -11.125 2.1875 C-7.39410173 -1.65313058 -5.13032038 -1.17007307 0 0 Z " fill="#073352" transform="translate(828,640)"/>
<path d="M0 0 C2.56510573 1.68756956 3.7514063 2.86855016 4.41796875 5.90234375 C4.68638597 9.79802075 4.46215544 11.45628771 1.875 14.5 C-1.49037356 16.25584708 -3.26015491 16.63656938 -7 16 C-10.21983624 13.82443497 -10.91057891 12.30738498 -12 8.5625 C-12 5 -12 5 -10.1875 2.125 C-6.58640614 -1.37320546 -4.81204473 -1.25113163 0 0 Z " fill="#053151" transform="translate(758,640)"/>
<path d="M0 0 C4.10703441 0.85563217 5.55401113 2.24378009 8 5.625 C8.62491523 9.58279649 8.61006839 11.63363886 6.5 15.0625 C2.97873756 17.26328902 0.04560357 17.42914661 -4 16.625 C-6.5 15.0625 -6.5 15.0625 -8 12.625 C-8.5625 9.1875 -8.5625 9.1875 -8 5.625 C-5.55401113 2.24378009 -4.10703441 0.85563217 0 0 Z " fill="#032F50" transform="translate(889,410.375)"/>
<path d="M0 0 C4.62 0 9.24 0 14 0 C14 0.66 14 1.32 14 2 C10.04 2 6.08 2 2 2 C2 20.15 2 38.3 2 57 C5.96 57 9.92 57 14 57 C14 57.33 14 57.66 14 58 C9.38 58 4.76 58 0 58 C0 38.86 0 19.72 0 0 Z " fill="#173352" transform="translate(747,664)"/>
<path d="M0 0 C3.96 0 7.92 0 12 0 C11.67 18.81 11.34 37.62 11 57 C10.67 57 10.34 57 10 57 C10 38.85 10 20.7 10 2 C6.7 2 3.4 2 0 2 C0 1.34 0 0.68 0 0 Z " fill="#042A4C" transform="translate(944,664)"/>
<path d="M0 0 C0.66 0.33 1.32 0.66 2 1 C1.21753906 1.73605469 0.43507813 2.47210937 -0.37109375 3.23046875 C-1.39375456 4.21560072 -2.4158611 5.2013083 -3.4375 6.1875 C-3.95376953 6.67025391 -4.47003906 7.15300781 -5.00195312 7.65039062 C-8.05422078 10.62286043 -9.69288658 12.69253741 -10 17 C-11.32 17.33 -12.64 17.66 -14 18 C-14 18.99 -14 19.98 -14 21 C-15.65 21.66 -17.3 22.32 -19 23 C-17.50510576 18.08427416 -14.66009321 15.11955907 -11.1875 11.5 C-10.66607422 10.94441406 -10.14464844 10.38882813 -9.60742188 9.81640625 C-6.46550935 6.48229184 -3.25429791 3.22422122 0 0 Z " fill="#082142" transform="translate(294,643)"/>
<path d="M0 0 C4.29 0 8.58 0 13 0 C12.40138258 2.35171131 11.73075648 4.6859378 11 7 C10.01 7.495 10.01 7.495 9 8 C9.33 6.35 9.66 4.7 10 3 C6.7 3 3.4 3 0 3 C0 2.01 0 1.02 0 0 Z " fill="#041E44" transform="translate(1008,664)"/>
<path d="M0 0 C4.29 0.33 8.58 0.66 13 1 C13 1.66 13 2.32 13 3 C8.38 3 3.76 3 -1 3 C-0.67 2.01 -0.34 1.02 0 0 Z " fill="#2A405A" transform="translate(651,608)"/>
<path d="M0 0 C1.65322266 0.01740234 1.65322266 0.01740234 3.33984375 0.03515625 C4.99693359 0.04869141 4.99693359 0.04869141 6.6875 0.0625 C7.54214844 0.07410156 8.39679687 0.08570313 9.27734375 0.09765625 C8.94734375 0.75765625 8.61734375 1.41765625 8.27734375 2.09765625 C4.97734375 2.09765625 1.67734375 2.09765625 -1.72265625 2.09765625 C-2.05265625 3.08765625 -2.38265625 4.07765625 -2.72265625 5.09765625 C-3.28515625 3.16015625 -3.28515625 3.16015625 -3.72265625 1.09765625 C-2.72265625 0.09765625 -2.72265625 0.09765625 0 0 Z " fill="#172B49" transform="translate(782.72265625,586.90234375)"/>
<path d="M0 0 C3.63 0 7.26 0 11 0 C11 0.66 11 1.32 11 2 C8.03 2 5.06 2 2 2 C2 3.65 2 5.3 2 7 C1.67 7 1.34 7 1 7 C0.67 4.69 0.34 2.38 0 0 Z " fill="#022044" transform="translate(1015,436)"/>
<path d="M0 0 C0.99 0.33 1.98 0.66 3 1 C1.19761121 2.80238879 -0.54887809 4.16402532 -2.625 5.625 C-3.25664063 6.07101562 -3.88828125 6.51703125 -4.5390625 6.9765625 C-5.02117187 7.31429688 -5.50328125 7.65203125 -6 8 C-6.66 7.67 -7.32 7.34 -8 7 C-6.74057614 5.80040625 -5.46704714 4.61560557 -4.1875 3.4375 C-3.12595703 2.44556641 -3.12595703 2.44556641 -2.04296875 1.43359375 C-1.36878906 0.96050781 -0.69460938 0.48742187 0 0 Z " fill="#062143" transform="translate(1183,436)"/>
<path d="M0 0 C0.33 1.32 0.66 2.64 1 4 C-0.9375 6.25 -0.9375 6.25 -3 8 C-3.99 7.67 -4.98 7.34 -6 7 C-4.02 4.69 -2.04 2.38 0 0 Z " fill="#052548" transform="translate(739,441)"/>
<path d="M0 0 C0.66 0.33 1.32 0.66 2 1 C2 1.66 2 2.32 2 3 C1.34 3 0.68 3 0 3 C-0.99 6.3 -1.98 9.6 -3 13 C-4.08644535 8.6542186 -3.90680911 8.05039452 -2.0625 4.25 C-1.68222656 3.45078125 -1.30195312 2.6515625 -0.91015625 1.828125 C-0.60980469 1.22484375 -0.30945313 0.6215625 0 0 Z " fill="#0B2040" transform="translate(656,594)"/>
<path d="M0 0 C0.66 0.33 1.32 0.66 2 1 C1.34 2.32 0.68 3.64 0 5 C-0.66 5 -1.32 5 -2 5 C-2.66 6.98 -3.32 8.96 -4 11 C-5 8 -5 8 -4.00390625 5.95703125 C-3.52824219 5.24933594 -3.05257813 4.54164063 -2.5625 3.8125 C-2.08941406 3.09707031 -1.61632813 2.38164063 -1.12890625 1.64453125 C-0.75636719 1.10183594 -0.38382813 0.55914063 0 0 Z " fill="#081E3F" transform="translate(1031,670)"/>
<path d="M0 0 C0.99 0 1.98 0 3 0 C1.63016497 3.16115776 1.0109362 3.9927092 -2 6 C-2 2 -2 2 0 0 Z " fill="#052648" transform="translate(355,254)"/>
<path d="M0 0 C0.66 0.33 1.32 0.66 2 1 C1.71125 1.556875 1.4225 2.11375 1.125 2.6875 C-0.0413253 5.08494645 -1.0339881 7.51596939 -2 10 C-3.39195915 5.82412255 -1.82323219 3.86525224 0 0 Z " fill="#082141" transform="translate(660,583)"/>
<path d="M0 0 C-1.5 1.5625 -1.5 1.5625 -4 3 C-6.77437543 2.96823234 -9.25286467 2.50364148 -12 2 C-12 1.67 -12 1.34 -12 1 C-10.37681021 0.63762737 -8.7513642 0.28534843 -7.125 -0.0625 C-6.22007813 -0.25972656 -5.31515625 -0.45695312 -4.3828125 -0.66015625 C-2 -1 -2 -1 0 0 Z " fill="#051637" transform="translate(1132,484)"/>
</svg>
